<svg aria-hidden="true" style="position: absolute; width: 0; height: 0; overflow: hidden;" version="1.1" xmlns="http://www.w3.org/2000/svg" xmlns:xlink="http://www.w3.org/1999/xlink">
<defs>
<symbol id="whatsapp" viewBox="0 0 32 32">
<path fill="#25d366" style="fill: var(--color1, #25d366)" d="M16 0.813c-8.387 0-15.188 6.8-15.188 15.188 0 3.069 0.913 5.931 2.481 8.319l-1.956 6.625 6.881-1.906c2.275 1.363 4.938 2.144 7.781 2.144 8.387 0 15.188-6.8 15.188-15.188 0-8.381-6.8-15.181-15.188-15.181z"></path>
<path fill="#fff" style="fill: var(--color2, #fff)" d="M24.344 20.169c-0.019-0.2-0.137-0.375-0.319-0.456-1.225-0.563-2.456-1.125-3.681-1.688-0.137-0.063-0.306-0.031-0.406 0.087l-1.663 1.875c-0.131 0.15-0.337 0.2-0.519 0.125-0.863-0.356-2.025-0.956-3.2-1.969-1.406-1.206-2.231-2.5-2.694-3.344 0.231-0.156 0.863-0.625 1.144-1.494 0-0.006 0.006-0.012 0.006-0.012 0.175-0.537 0.137-1.119-0.056-1.65-0.331-0.881-0.994-2.588-1.25-2.85-0.044-0.044-0.094-0.088-0.094-0.088-0.188-0.169-0.431-0.262-0.688-0.275-0.088-0.006-0.181-0.006-0.281-0.006-0.287-0.006-0.544-0.006-0.731 0.019-0.531 0.075-0.919 0.431-1.162 0.731-0.294 0.356-0.644 0.887-0.875 1.588-0.019 0.063-0.037 0.119-0.056 0.181-0.256 0.887-0.206 1.838 0.1 2.713 0.287 0.819 0.706 1.794 1.338 2.825 1.069 1.756 2.231 2.844 3.019 3.563 0.887 0.819 1.988 1.825 3.731 2.663 1.613 0.775 3.075 1.063 4.056 1.181 0.4 0.038 1.137 0.044 1.981-0.275 0.387-0.15 0.712-0.331 0.975-0.525 0.694-0.494 1.181-1.238 1.306-2.075 0-0.006 0-0.012 0-0.019 0.044-0.319 0.038-0.594 0.019-0.825z"></path>
</symbol>
<symbol id="vk" viewBox="0 0 32 32">
<path fill="#4d76a1" style="fill: var(--color3, #4d76a1)" d="M32 16c0 8.837-7.163 16-16 16s-16-7.163-16-16c0-8.837 7.163-16 16-16s16 7.163 16 16z"></path>
<path fill="#fff" style="fill: var(--color2, #fff)" d="M15.394 23.019h1.256c0 0 0.381-0.044 0.575-0.25 0.181-0.194 0.175-0.55 0.175-0.55s-0.025-1.688 0.756-1.931c0.769-0.244 1.762 1.625 2.813 2.35 0.794 0.544 1.394 0.425 1.394 0.425l2.806-0.038c0 0 1.469-0.087 0.769-1.244-0.056-0.094-0.406-0.856-2.087-2.413-1.756-1.631-1.525-1.369 0.594-4.194 1.294-1.719 1.806-2.769 1.644-3.219-0.156-0.431-1.1-0.313-1.1-0.313l-3.163 0.019c0 0-0.231-0.031-0.406 0.069-0.169 0.1-0.281 0.338-0.281 0.338s-0.5 1.331-1.169 2.463c-1.406 2.387-1.969 2.512-2.2 2.369-0.538-0.35-0.4-1.387-0.4-2.131 0-2.313 0.35-3.281-0.681-3.531-0.344-0.081-0.594-0.137-1.475-0.144-1.125-0.012-2.081 0-2.625 0.269-0.356 0.175-0.637 0.569-0.469 0.588 0.206 0.025 0.681 0.131 0.931 0.469 0.325 0.438 0.313 1.431 0.313 1.431s0.188 2.725-0.438 3.062c-0.425 0.231-1.012-0.244-2.262-2.406-0.644-1.113-1.125-2.338-1.125-2.338s-0.094-0.231-0.262-0.35c-0.206-0.15-0.488-0.194-0.488-0.194l-3 0.019c0 0-0.45 0.012-0.619 0.206-0.144 0.175-0.013 0.537-0.013 0.537s2.35 5.5 5.013 8.269c2.456 2.531 5.225 2.363 5.225 2.363v0z"></path>
</symbol>
<symbol id="tg" viewBox="0 0 32 32">
<path fill="#0088cc" style="fill: var(--color4, #0088cc)" d="M32 16c0 8.837-7.163 16-16 16s-16-7.163-16-16c0-8.837 7.163-16 16-16s16 7.163 16 16z"></path>
<path fill="#fff" style="fill: var(--color2, #fff)" d="M23.788 9.206l-2.856 14.406c0 0-0.4 1-1.5 0.519l-6.594-5.056-2.4-1.156-4.037-1.356c0 0-0.619-0.219-0.681-0.7s0.7-0.738 0.7-0.738l16.050-6.294c0-0.006 1.319-0.588 1.319 0.375z"></path>
<path fill="#d2e4f0" style="fill: var(--color5, #d2e4f0)" d="M12.325 23.45c0 0-0.194-0.019-0.431-0.775s-1.456-4.756-1.456-4.756l9.694-6.156c0 0 0.563-0.338 0.538 0 0 0 0.1 0.063-0.2 0.338-0.3 0.281-7.613 6.856-7.613 6.856z"></path>
<path fill="#0088cc" style="fill: var(--color6, #0088cc)" d="M15.363 21.012l-2.606 2.381c0 0-0.206 0.156-0.425 0.056l0.5-4.419z"></path>
</symbol>
<symbol id="youtube" viewBox="0 0 32 32">
<path fill="#f00" style="fill: var(--color7, #f00)" d="M16 0.8c-8.395 0-15.2 6.823-15.2 15.24 0.801 20.216 29.602 20.21 30.4-0 0-8.417-6.805-15.24-15.2-15.24zM16 24.768c-4.812 0-8.726-3.915-8.726-8.726 0.237-5.972 4.689-8.683 8.726-8.683 0 0 0 0 0.001 0 4.037 0 8.49 2.711 8.725 8.663 0.001 4.832-3.914 8.746-8.726 8.746z"></path>
<path fill="#f00" style="fill: var(--color7, #f00)" d="M16.001 8.353c-5.103-0-7.585 3.996-7.733 7.708 0 4.244 3.469 7.712 7.732 7.712s7.732-3.468 7.732-7.732c-0.146-3.692-2.628-7.688-7.731-7.689z"></path>
<path fill="#f1f1f1" style="fill: var(--color8, #f1f1f1)" d="M13.138 16.809c-0 0.824 0 2.517 0 3.347 0 0 6.977-4.293 6.977-4.293l-6.977-3.936v4.882z"></path>
</symbol>
</defs>
</svg>

<?xml version="1.0" ?><svg data-name="Layer 1" id="Layer_1" viewBox="0 0 512 512" xmlns="http://www.w3.org/2000/svg" xmlns:xlink="http://www.w3.org/1999/xlink"><defs><style>.cls-1{fill:url(#linear-gradient);}</style><linearGradient gradientUnits="userSpaceOnUse" id="linear-gradient" x2="502.697" y1="512" y2="9.303"><stop offset="0" stop-color="#2081c7"/><stop offset="1" stop-color="#38afe2"/></linearGradient></defs><title/><path class="cls-1" d="M256,0C114.615,0,0,114.615,0,256S114.615,512,256,512,512,397.385,512,256,397.385,0,256,0ZM389.059,161.936,343.591,379a16.007,16.007,0,0,1-25.177,9.593l-66.136-48.861-40.068,37.8a5.429,5.429,0,0,1-7.74-.294l-.861-.946,6.962-67.375L336.055,194.266a3.358,3.358,0,0,0-4.061-5.317L171.515,290.519,102.4,267.307a9.393,9.393,0,0,1-.32-17.694L372.5,147.744A12.441,12.441,0,0,1,389.059,161.936Z"/></svg>